{
  "accessors": [
    {
      "bufferView": 2,
      "componentType": 5126,
      "count": 65532,
      "max": [
        0.99519634246826172,
        0.99519634246826172,
        0.081961996853351593
      ],
      "min": [
        -0.99519634246826172,
        -0.99519634246826172,
        0
      ],
      "type": "VEC3"
    },
    {
      "bufferView": 2,
      "byteOffset": 786384,
      "componentType": 5126,
      "count": 65532,
      "max": [
        1,
        1,
        1
      ],
      "min": [
        -1,
        -1,
        -1
      ],
      "type": "VEC3"
    },
    {
      "bufferView": 3,
      "componentType": 5126,
      "count": 65532,
      "max": [
        1,
        0.98292040824890137,
        1,
        1
      ],
      "min": [
        -0.99517446756362915,
        -0.99879515171051025,
        -1,
        -1
      ],
      "type": "VEC4"
    },
    {
      "bufferView": 1,
      "componentType": 5126,
      "count": 65532,
      "max": [
        0.94637733697891235,
        0.98199617862701416
      ],
      "min": [
        0.020808994770050049,
        0.04808088019490242
      ],
      "type": "VEC2"
    },
    {
      "bufferView": 0,
      "componentType": 5125,
      "count": 380436,
      "max": [
        65531
      ],
      "min": [
        0
      ],
      "type": "SCALAR"
    },
    {
      "bufferView": 2,
      "byteOffset": 1572768,
      "componentType": 5126,
      "count": 65532,
      "max": [
        0.93222397565841675,
        0.93222415447235107,
        0.065532945096492767
      ],
      "min": [
        -0.93222397565841675,
        -0.91812628507614136,
        0.015846140682697296
      ],
      "type": "VEC3"
    },
    {
      "bufferView": 2,
      "byteOffset": 2359152,
      "componentType": 5126,
      "count": 65532,
      "max": [
        1,
        1,
        0.99998664855957031
      ],
      "min": [
        -1,
        -0.97569632530212402,
        -1
      ],
      "type": "VEC3"
    },
    {
      "bufferView": 3,
      "byteOffset": 1048512,
      "componentType": 5126,
      "count": 65532,
      "max": [
        1,
        0.99996256828308105,
        1,
        1
      ],
      "min": [
        -0.99998652935028076,
        -0.99997985363006592,
        -1,
        -1
      ],
      "type": "VEC4"
    },
    {
      "bufferView": 1,
      "byteOffset": 524256,
      "componentType": 5126,
      "count": 65532,
      "max": [
        0.54509997367858887,
        0.98040753602981567
      ],
      "min": [
        0.022486485540866852,
        0.45770525932312012
      ],
      "type": "VEC2"
    },
    {
      "bufferView": 0,
      "byteOffset": 1521744,
      "componentType": 5125,
      "count": 350499,
      "max": [
        65531
      ],
      "min": [
        0
      ],
      "type": "SCALAR"
    },
    {
      "bufferView": 2,
      "byteOffset": 3145536,
      "componentType": 5126,
      "count": 30769,
      "max": [
        0.9321516752243042,
        0.93222415447235107,
        0.069517016410827637
      ],
      "min": [
        -0.93042385578155518,
        -0.93222391605377197,
        0.016747172921895981
      ],
      "type": "VEC3"
    },
    {
      "bufferView": 2,
      "byteOffset": 3514764,
      "componentType": 5126,
      "count": 30769,
      "max": [
        0.99991512298583984,
        1,
        0.99999988079071045
      ],
      "min": [
        -0.99470728635787964,
        -1,
        -1
      ],
      "type": "VEC3"
    },
    {
      "bufferView": 3,
      "byteOffset": 2097024,
      "componentType": 5126,
      "count": 30769,
      "max": [
        1,
        0.99959594011306763,
        1,
        1
      ],
      "min": [
        -0.99965357780456543,
        -0.9996907114982605,
        -1,
        -1
      ],
      "type": "VEC4"
    },
    {
      "bufferView": 1,
      "byteOffset": 1048512,
      "componentType": 5126,
      "count": 30769,
      "max": [
        0.54503095149993896,
        0.98041737079620361
      ],
      "min": [
        0.022491419687867165,
        0.45770522952079773
      ],
      "type": "VEC2"
    },
    {
      "bufferView": 0,
      "byteOffset": 2923740,
      "componentType": 5125,
      "count": 157257,
      "max": [
        30768
      ],
      "min": [
        0
      ],
      "type": "SCALAR"
    }
  ],
  "asset": {
    "extras": {
      "author": "VanZhen (https://sketchfab.com/vanzhen)",
      "license": "CC-BY-4.0 (http://creativecommons.org/licenses/by/4.0/)",
      "source": "https://sketchfab.com/models/be32e68b90de4e619f41f0d8689d1ef6",
      "title": "Pizza"
    },
    "generator": "Sketchfab-3.22.6",
    "version": "2.0"
  },
  "bufferViews": [
    {
      "buffer": 0,
      "byteLength": 3552768,
      "byteOffset": 0,
      "name": "floatBufferViews",
      "target": 34963
    },
    {
      "buffer": 0,
      "byteLength": 1294664,
      "byteOffset": 3552768,
      "byteStride": 8,
      "name": "floatBufferViews",
      "target": 34962
    },
    {
      "buffer": 0,
      "byteLength": 3883992,
      "byteOffset": 4847432,
      "byteStride": 12,
      "name": "floatBufferViews",
      "target": 34962
    },
    {
      "buffer": 0,
      "byteLength": 2589328,
      "byteOffset": 8731424,
      "byteStride": 16,
      "name": "floatBufferViews",
      "target": 34962
    }
  ],
  "buffers": [
    {
      "byteLength": 11320752,
      "uri": "scene.bin"
    }
  ],
  "images": [
    {
      "uri": "textures/Scene_-_Root_metallicRoughness.png"
    },
    {
      "uri": "textures/Scene_-_Root_normal.png"
    },
    {
      "uri": "textures/Scene_-_Root_baseColor.png"
    }
  ],
  "materials": [
    {
      "doubleSided": true,
      "emissiveFactor": [
        0,
        0,
        0
      ],
      "name": "Scene_-_Root",
      "normalTexture": {
        "index": 1,
        "scale": 0.074885670700000004,
        "texCoord": 0
      },
      "occlusionTexture": {
        "index": 0,
        "strength": 1,
        "texCoord": 0
      },
      "pbrMetallicRoughness": {
        "baseColorFactor": [
          0.73951981710000003,
          0.73951981710000003,
          0.73951981710000003,
          1
        ],
        "baseColorTexture": {
          "index": 2,
          "texCoord": 0
        },
        "metallicFactor": 0,
        "roughnessFactor": 1
      }
    }
  ],
  "meshes": [
    {
      "name": "Circle.001__0",
      "primitives": [
        {
          "attributes": {
            "NORMAL": 1,
            "POSITION": 0,
            "TANGENT": 2,
            "TEXCOORD_0": 3
          },
          "indices": 4,
          "material": 0,
          "mode": 4
        }
      ]
    },
    {
      "name": "Circle.001__0",
      "primitives": [
        {
          "attributes": {
            "NORMAL": 6,
            "POSITION": 5,
            "TANGENT": 7,
            "TEXCOORD_0": 8
          },
          "indices": 9,
          "material": 0,
          "mode": 4
        }
      ]
    },
    {
      "name": "Circle.001__0",
      "primitives": [
        {
          "attributes": {
            "NORMAL": 11,
            "POSITION": 10,
            "TANGENT": 12,
            "TEXCOORD_0": 13
          },
          "indices": 14,
          "material": 0,
          "mode": 4
        }
      ]
    }
  ],
  "nodes": [
    {
      "children": [
        1
      ],
      "name": "RootNode (gltf orientation matrix)",
      "rotation": [
        -0.70710678118654746,
        -0,
        -0,
        0.70710678118654757
      ]
    },
    {
      "children": [
        2
      ],
      "name": "RootNode (model correction matrix)"
    },
    {
      "children": [
        3
      ],
      "matrix": [
        1,
        0,
        0,
        0,
        0,
        0,
        1,
        0,
        0,
        -1,
        0,
        0,
        0,
        0,
        0,
        1
      ],
      "name": "1c53d40d32c64a2299816f4c17fd6f5c.fbx"
    },
    {
      "children": [
        4
      ],
      "name": "RootNode"
    },
    {
      "children": [
        5,
        6,
        7
      ],
      "matrix": [
        34.712333679199219,
        0,
        0,
        0,
        0,
        -5.6553569862910877e-06,
        -34.712333679198757,
        0,
        0,
        34.712333679198757,
        -5.6553569862910877e-06,
        0,
        0,
        0,
        0,
        1
      ],
      "name": "Circle.001"
    },
    {
      "mesh": 0,
      "name": "Circle.001__0"
    },
    {
      "mesh": 1,
      "name": "Circle.001__0"
    },
    {
      "mesh": 2,
      "name": "Circle.001__0"
    }
  ],
  "samplers": [
    {
      "magFilter": 9729,
      "minFilter": 9987,
      "wrapS": 10497,
      "wrapT": 10497
    }
  ],
  "scene": 0,
  "scenes": [
    {
      "name": "OSG_Scene",
      "nodes": [
        0
      ]
    }
  ],
  "textures": [
    {
      "sampler": 0,
      "source": 0
    },
    {
      "sampler": 0,
      "source": 1
    },
    {
      "sampler": 0,
      "source": 2
    }
  ]
}

